<?xml version="1.0" encoding="UTF-8" standalone="no"?>
<svg
   version="1.1"
   x="0px"
   y="0px"
   width="700px"
   height="700px"
   viewBox="5 5 700 700"
   id="svg5"
   sodipodi:docname="icon-dark.svg"
   inkscape:version="1.4 (86a8ad7, 2024-10-11)"
   xmlns:inkscape="http://www.inkscape.org/namespaces/inkscape"
   xmlns:sodipodi="http://sodipodi.sourceforge.net/DTD/sodipodi-0.dtd"
   xmlns="http://www.w3.org/2000/svg"
   xmlns:svg="http://www.w3.org/2000/svg">
  <defs
     id="defs5" />
  <sodipodi:namedview
     id="namedview5"
     pagecolor="#ffffff"
     bordercolor="#000000"
     borderopacity="0.25"
     inkscape:showpageshadow="2"
     inkscape:pageopacity="0.0"
     inkscape:pagecheckerboard="0"
     inkscape:deskcolor="#d1d1d1"
     inkscape:zoom="1.1528571"
     inkscape:cx="350"
     inkscape:cy="479.24411"
     inkscape:window-width="1920"
     inkscape:window-height="1009"
     inkscape:window-x="-8"
     inkscape:window-y="-8"
     inkscape:window-maximized="1"
     inkscape:current-layer="svg5"
     showguides="true" />
  <path
     fill="#477894"
     class="background"
     d="M 5,5 H 705 V 705 H 5"
     id="path1"
     style="stroke-width:1.00002" />
  <!-- 背景色 -->
  <path
     fill="#f9fbfc"
     class="upper"
     d="m 152.24098,263.30617 c 0.30215,-53.17716 0.80571,-82.38429 1.61143,-88.42715 2.01428,-15.20786 5.94215,-33.135 9.06428,-41.19214 10.87715,-28.40144 33.43715,-48.846432 64.55786,-58.817147 11.17929,-3.525 30.51643,-6.949285 44.51572,-7.956429 l 9.86999,-0.604285 c 0.15007,26.991428 0.15007,26.991428 0.12892,55.778591 -0.705,0.20143 -6.17177,1.42713 -10.6032,2.43426 -4.33071,1.00715 -11.88428,3.72644 -16.81928,6.24429 -16.215,8.05715 -26.8877,21.35143 -32.12484,40.08429 -2.41714,8.35929 -4.33071,25.68214 -3.82714,34.74642 l 0.30214,6.54644 62.9434,0.50356 V 342.56831 H 151.83813 Z"
     id="path2"
     style="stroke-width:1.00715" />
  <path
     fill="#f9fbfc"
     class="upper"
     d="m 335.37857,274.68687 c 0,-76.34143 1.20555,-98.90142 6.64715,-125.48999 6.04285,-29.30787 23.06356,-51.968575 49.95428,-66.471433 15.10715,-8.057143 38.87874,-13.999285 63.05017,-15.711429 l 10.27285,-0.704999 c 0,0 0.19841,46.567261 0.19438,55.631541 -0.705,0.20143 -6.23723,1.57418 -10.66967,2.58131 -24.47357,5.43858 -42.90429,22.86214 -49.04786,46.4293 -2.51785,10.17214 -4.23,27.29357 -3.32357,35.45141 l 0.60429,6.24429 H 465.3 V 342.56831 H 335.37857 Z"
     id="path3"
     style="stroke-width:1.00715" />
  <path
     fill="#c5d8e3"
     class="lower"
     d="m 243.14141,640.22132 c -0.30214,-0.70499 0.0836,-54.3273 0.0836,-54.3273 l 9.06428,-2.31643 c 14.805,-3.82714 24.675,-9.165 33.73929,-18.22927 13.69715,-13.79787 18.93428,-28.0993 19.83769,-54.78859 l 0.60731,-15.91286 h -63.75215 l 0.50358,-129.41786 129.41786,-0.50357 v 68.18358 c 0,85.10357 -1.11088,103.53429 -7.95644,130.52572 -9.36642,37.16357 -36.86142,62.24143 -79.26213,72.31285 -7.15071,1.71215 -42.24058,4.97529 -42.28288,4.47373 z"
     id="path4"
     style="stroke-width:1.00715" />
  <path
     fill="#c5d8e3"
     class="lower"
     d="m 428.03572,640.38044 c -0.30517,-0.30213 0.10071,-54.88928 0.10071,-54.88928 l 9.06428,-2.21571 c 14.40215,-3.62571 24.06871,-8.76214 33.23572,-18.02786 13.59643,-13.59642 18.83357,-27.99857 19.74,-54.68786 l 0.47134,-16.75181 c 0,0 -62.61307,0.0332 -62.61307,-0.36961 0,-0.50358 0,-128.71287 0,-128.71287 h 129.01602 l -0.40286,79.86643 c -0.40286,66.67286 -0.70501,81.67929 -2.115,91.34787 -3.22286,23.36571 -6.04285,33.53785 -12.58929,46.83213 -15.20785,30.81857 -47.63786,51.26358 -88.7313,55.79572 -15.20584,1.61142 -24.67298,2.31643 -25.17655,1.81285 z"
     id="path5"
     style="stroke-width:1.00715" />
</svg>
