<?xml version="1.0" encoding="UTF-8" standalone="no"?>
<svg
   version="1.1"
   x="0px"
   y="0px"
   width="700px"
   height="700px"
   viewBox="0 0 700 700"
   id="svg5"
   sodipodi:docname="icon-dark.svg"
   inkscape:version="1.4 (86a8ad7, 2024-10-11)"
   xmlns:inkscape="http://www.inkscape.org/namespaces/inkscape"
   xmlns:sodipodi="http://sodipodi.sourceforge.net/DTD/sodipodi-0.dtd"
   xmlns="http://www.w3.org/2000/svg"
   xmlns:svg="http://www.w3.org/2000/svg">
  <defs
     id="defs5" />
  <sodipodi:namedview
     id="namedview5"
     pagecolor="#ffffff"
     bordercolor="#000000"
     borderopacity="0.25"
     inkscape:showpageshadow="2"
     inkscape:pageopacity="0.0"
     inkscape:pagecheckerboard="0"
     inkscape:deskcolor="#d1d1d1"
     inkscape:zoom="1.1528571"
     inkscape:cx="350.00001"
     inkscape:cy="338.72368"
     inkscape:window-width="1920"
     inkscape:window-height="1009"
     inkscape:window-x="-8"
     inkscape:window-y="-8"
     inkscape:window-maximized="1"
     inkscape:current-layer="svg5"
     showguides="true" />
  <path
     fill="#477894"
     class="background"
     d="M 0,0 H 700 V 700 H 0"
     id="path1"
     style="stroke-width:1.00002" />
  <!-- 背景色 -->
  <path
     fill="#f9fbfc"
     class="upper"
     d="m 147.37357,257.57135 c 0.30215,-53.17716 0.80571,-82.38429 1.61143,-88.42715 2.01428,-15.20786 5.94215,-33.135 9.06428,-41.19214 10.87715,-28.40144 33.43715,-48.846432 64.55786,-58.817147 14.88612,-4.693819 32.44642,-7.217492 54.38571,-8.560714 0.15007,26.991428 0.15007,26.991428 0.12892,55.778591 -23.32709,4.75101 -49.77336,13.80212 -59.54732,48.76284 -3.72113,12.86891 -4.11372,28.53718 -3.525,41.29286 l 62.9434,0.50356 V 336.83349 H 146.97072 Z"
     id="path2"
     style="stroke-width:1.00715"
     sodipodi:nodetypes="cccccccccccc" />
  <path
     fill="#f9fbfc"
     class="upper"
     d="m 330.51116,268.95205 c 0,-76.34143 1.20555,-98.90142 6.64715,-125.48999 6.04285,-29.30787 23.06356,-51.968575 49.95428,-66.471433 22.67636,-11.677294 48.23251,-14.694531 73.32302,-16.416428 0,0 0.19841,46.567261 0.19438,55.631541 -29.50382,5.9918 -50.10448,19.02215 -59.71753,49.01061 -3.52776,14.25219 -4.09997,27.42862 -2.71928,41.6957 h 62.23941 V 336.83349 H 330.51116 Z"
     id="path3"
     style="stroke-width:1.00715"
     sodipodi:nodetypes="scccccccccs" />
  <path
     fill="#c5d8e3"
     class="lower"
     d="m 238.274,634.4865 c -0.30214,-0.70499 0.0836,-54.3273 0.0836,-54.3273 15.97189,-3.33897 30.81942,-9.16296 42.80357,-20.5457 19.69358,-18.64801 19.4865,-45.5866 20.445,-70.70145 h -63.75215 l 0.50358,-129.41786 129.41786,-0.50357 v 68.18358 c 0,85.10357 -1.11088,103.53429 -7.95644,130.52572 -9.36642,37.16357 -36.86142,62.24143 -79.26213,72.31285 -7.15071,1.71215 -42.24058,4.97529 -42.28288,4.47373 z"
     id="path4"
     style="stroke-width:1.00715"
     sodipodi:nodetypes="sccccccsccss" />
  <path
     fill="#c5d8e3"
     class="lower"
     d="m 423.16831,634.64562 c -0.30517,-0.30213 0.10071,-54.88928 0.10071,-54.88928 15.87081,-3.09869 30.48826,-8.90471 42.3,-20.24357 19.8392,-18.82099 19.49888,-46.11816 20.21134,-71.43967 0,0 -62.61307,0.0332 -62.61307,-0.36961 V 358.99062 h 129.01602 l -0.40286,79.86643 c -0.40286,66.67286 -0.70501,81.67929 -2.115,91.34787 -6.83709,60.35452 -39.50247,93.23952 -101.32059,102.62785 -15.20584,1.61142 -24.67298,2.31643 -25.17655,1.81285 z"
     id="path5"
     style="stroke-width:1.00715"
     sodipodi:nodetypes="ccccscccccc" />
</svg>
