<svg width="700" height="700" xmlns="http://www.w3.org/2000/svg">
  <path fill="hsl(220, 76%, 93%)" d="M0 0h700v700H0"/>
  <path fill="hsl(352, 89%, 66%)" d="M147.374 257.571c.302-53.177.805-82.384 1.611-88.427 2.014-15.208 5.942-33.135 9.064-41.192 10.877-28.401 33.437-48.846 64.558-58.817 14.886-4.694 32.447-7.218 54.386-8.56.15 26.99.15 26.99.129 55.778-23.327 4.75-49.774 13.802-59.548 48.763-3.72 12.869-4.113 28.537-3.525 41.292l62.944.504v129.921H146.97zM330.511 268.952c0-76.341 1.206-98.901 6.647-125.49 6.043-29.308 23.064-51.969 49.955-66.471 22.676-11.678 48.232-14.695 73.323-16.417 0 0 .198 46.567.194 55.632-29.504 5.992-50.104 19.022-59.718 49.01-3.527 14.253-4.1 27.429-2.719 41.696h62.24v129.921H330.51z"/>
  <path fill="hsl(352, 89%, 76%)" d="M238.274 634.486c-.302-.704.084-54.327.084-54.327 15.971-3.339 30.819-9.163 42.803-20.546 19.694-18.648 19.487-45.586 20.445-70.701h-63.752l.504-129.418 129.417-.503v68.183c0 85.104-1.11 103.534-7.956 130.526-9.366 37.163-36.861 62.241-79.262 72.313-7.15 1.712-42.24 4.975-42.283 4.473zM423.168 634.646c-.305-.303.101-54.89.101-54.89 15.87-3.098 30.488-8.904 42.3-20.243 19.84-18.821 19.499-46.118 20.211-71.44 0 0-62.613.033-62.613-.37V358.991h129.016l-.403 79.866c-.402 66.673-.705 81.68-2.115 91.348-6.837 60.354-39.502 93.24-101.32 102.628-15.206 1.611-24.673 2.316-25.177 1.813z"/>
</svg>
